<?xml version="1.0" encoding="utf-8"?>
<!-- Generator: Adobe Illustrator 21.1.0, SVG Export Plug-In . SVG Version: 6.00 Build 0)  -->
<svg version="1.1" id="Layer_1" xmlns="http://www.w3.org/2000/svg" xmlns:xlink="http://www.w3.org/1999/xlink" x="0px" y="0px"
	 width="500px" height="500px" viewBox="0 0 500 500" style="enable-background:new 0 0 500 500;" xml:space="preserve">
<path d="M485.5,247.1L279.9,41.5c-4.3-4.3-11.2-4.3-15.5,0l0,0c-4.3,4.3-4.3,11.2,0,15.5l171,171c4.1,4.1,1.2,11-4.6,11H24.5
	c-6,0-11.2,4.7-11.3,10.8c-0.1,6.2,4.8,11.2,11,11.2h407.1c5.8,0,8.6,7,4.6,11L264.8,443.1c-4.3,4.3-4.3,11.2,0,15.5l0,0
	c4.3,4.3,11.2,4.3,15.5,0l205.1-205.1c0.6-0.6,1-1.4,1.2-2.2C487,249.8,486.6,248.2,485.5,247.1z"/>
</svg>
